<svg width="16" height="16" viewBox="0 0 16 16" fill="none" xmlns="http://www.w3.org/2000/svg">
<path d="M10 1H3.5C3.10218 1 2.72064 1.1475 2.43934 1.41005C2.15804 1.6726 2 2.0287 2 2.4V13.6C2 13.9713 2.15804 14.3274 2.43934 14.5899C2.72064 14.8525 3.10218 15 3.5 15H12.5C12.8978 15 13.2794 14.8525 13.5607 14.5899C13.842 14.3274 14 13.9713 14 13.6V5L10 1Z" stroke="black" stroke-width="1.5" stroke-linecap="round" stroke-linejoin="round"/>
<path d="M10 1V3.66667C10 4.02029 10.1405 4.35943 10.3905 4.60948C10.6406 4.85952 10.9797 5 11.3333 5H14" stroke="black" stroke-width="1.5" stroke-linecap="round" stroke-linejoin="round"/>
</svg>
