<svg width="16" height="16" viewBox="0 0 16 16" fill="none" xmlns="http://www.w3.org/2000/svg">
<g clip-path="url(#clip0_782_404)">
<path d="M14.2222 1H1.77778C1.34822 1 1 1.3198 1 1.71429V5.28571C1 5.6802 1.34822 6 1.77778 6H14.2222C14.6518 6 15 5.6802 15 5.28571V1.71429C15 1.3198 14.6518 1 14.2222 1Z" stroke="black" stroke-width="1.5" stroke-linecap="round" stroke-linejoin="round"/>
<path d="M5.28571 10H1.71429C1.3198 10 1 10.3198 1 10.7143V14.2857C1 14.6802 1.3198 15 1.71429 15H5.28571C5.6802 15 6 14.6802 6 14.2857V10.7143C6 10.3198 5.6802 10 5.28571 10Z" stroke="black" stroke-width="1.5" stroke-linecap="round" stroke-linejoin="round"/>
<path d="M14.2857 10H10.7143C10.3198 10 10 10.3198 10 10.7143V14.2857C10 14.6802 10.3198 15 10.7143 15H14.2857C14.6802 15 15 14.6802 15 14.2857V10.7143C15 10.3198 14.6802 10 14.2857 10Z" stroke="black" stroke-width="1.5" stroke-linecap="round" stroke-linejoin="round"/>
</g>
<defs>
<clipPath id="clip0_782_404">
<rect width="16" height="16" fill="white"/>
</clipPath>
</defs>
</svg>
